# xmcd
#
# Track frame offsets:
# 150
# 15689
# 32585
# 50787
# 67429
# 85579
# 101760
# 118979
# 139520
# 155880
# 173399
# 192186
# 210242
# 225771
# 241765
# 272357
#
# Disc length: 4440 seconds
#
#
# Revision: 1
# Processed by: cddbd v1.5.1PL0 Copyright (c) Steve Scherf et al.
# Submitted via: FreeRIP 2.91 
#
DISCID=ce115610
DTITLE=Blue - One Love
DYEAR=2002
DGENRE=
TTITLE0=One Love
TTITLE1=Riders
TTITLE2=Flexin'
TTITLE3=Sorry Seems To Be The Hardest World feat Elton John
TTITLE4=She Told Me
TTITLE5=Right Here Waiting
TTITLE6=U Make Me Wanna
TTITLE7=Ain`t Got You
TTITLE8=Supersexual
TTITLE9=Don`t Treat Me Like A Fool
TTITLE10=Get Down
TTITLE11=Privacy
TTITLE12=Without You
TTITLE13=Invitation
TTITLE14=Like A Friend
TTITLE15=data
EXTD=
EXTT0=
EXTT1=
EXTT2=
EXTT3=
EXTT4=
EXTT5=
EXTT6=
EXTT7=
EXTT8=
EXTT9=
EXTT10=
EXTT11=
EXTT12=
EXTT13=
EXTT14=
EXTT15=
PLAYORDER=
